<?xml version="1.0" encoding="UTF-8"?>
<!DOCTYPE svg PUBLIC "-//W3C//DTD SVG 1.1//EN" "http://www.w3.org/Graphics/SVG/1.1/DTD/svg11.dtd">
<!-- Creator: CorelDRAW -->
<svg xmlns="http://www.w3.org/2000/svg" xml:space="preserve" width="6.82666in" height="6.82666in" style="shape-rendering:geometricPrecision; text-rendering:geometricPrecision; image-rendering:optimizeQuality; fill-rule:evenodd; clip-rule:evenodd"
viewBox="0 0 6.82666 6.82666"
 xmlns:xlink="http://www.w3.org/1999/xlink">
 <defs>
  <style type="text/css">
   <![CDATA[
    .fil2 {fill:none}
    .fil1 {fill:#1E88E5}
    .fil0 {fill:#64B5F6}
    .fil8 {fill:#26C6DA;fill-rule:nonzero}
    .fil4 {fill:#4E342E;fill-rule:nonzero}
    .fil3 {fill:#6D4C41;fill-rule:nonzero}
    .fil7 {fill:#7CB342;fill-rule:nonzero}
    .fil6 {fill:#E53935;fill-rule:nonzero}
    .fil5 {fill:#F9A825;fill-rule:nonzero}
   ]]>
  </style>
   <clipPath id="id0">
    <path d="M3.41333 -3.93701e-006c1.88514,0 3.41333,1.52819 3.41333,3.41333 0,1.88514 -1.52819,3.41333 -3.41333,3.41333 -1.88514,0 -3.41333,-1.52819 -3.41333,-3.41333 0,-1.88514 1.52819,-3.41333 3.41333,-3.41333z"/>
   </clipPath>
 </defs>
 <g id="Layer_x0020_1">
  <metadata id="CorelCorpID_0Corel-Layer"/>
  <path class="fil0" d="M3.41333 -3.93701e-006c1.88514,0 3.41333,1.52819 3.41333,3.41333 0,1.88514 -1.52819,3.41333 -3.41333,3.41333 -1.88514,0 -3.41333,-1.52819 -3.41333,-3.41333 0,-1.88514 1.52819,-3.41333 3.41333,-3.41333z"/>
  <g style="clip-path:url(#id0)">
   <g id="_351300248">
    <g>
     <polygon id="_4112025281" class="fil1" points="4.9117,2.21176 8.69796,5.99804 8.72427,6.03009 8.74971,6.06272 8.77429,6.0959 8.79798,6.12963 8.82076,6.16388 8.84264,6.19866 8.86359,6.23394 8.88359,6.26971 8.90264,6.30596 8.92072,6.34268 8.93781,6.37985 8.9539,6.41745 8.96898,6.45548 8.98303,6.49393 8.99604,6.53276 9.00799,6.57199 9.01887,6.61159 9.02867,6.65154 9.03736,6.69184 9.04494,6.73247 9.0514,6.77343 9.05672,6.81468 9.06087,6.85623 9.06386,6.89806 9.06567,6.94015 9.06627,6.98249 5.28,3.19622 5.2794,3.15387 5.27759,3.11178 5.27461,3.06996 5.27045,3.02841 5.26513,2.98715 5.25868,2.9462 5.25109,2.90557 5.2424,2.86527 5.2326,2.82531 5.22172,2.78572 5.20977,2.74649 5.19676,2.70765 5.18271,2.66921 5.16763,2.63118 5.15154,2.59357 5.13445,2.55641 5.11637,2.51969 5.09732,2.48344 5.07732,2.44767 5.05637,2.41239 5.0345,2.37761 5.01171,2.34335 4.98802,2.30963 4.96344,2.27644 4.938,2.24382 "/>
     <polygon id="_411202696" class="fil1" points="5.28,3.19622 9.06627,6.98249 9.06595,7.0087 9.06499,7.03473 9.06341,7.06057 9.0612,7.0862 9.05839,7.11162 9.05496,7.13683 9.05094,7.16181 9.04633,7.18657 9.04113,7.21109 9.03535,7.23536 9.02901,7.25938 9.0221,7.28314 9.01464,7.30663 9.00663,7.32985 8.99807,7.35279 8.98899,7.37544 8.97938,7.3978 8.96925,7.41985 8.9586,7.44159 8.94746,7.46301 8.93581,7.48411 8.92368,7.50487 8.91106,7.5253 8.89797,7.54538 8.88441,7.56511 8.87039,7.58447 8.85591,7.60347 8.84099,7.62209 8.82563,7.64033 8.80984,7.65818 8.79362,7.67563 8.77699,7.69267 4.99072,3.9064 5.00735,3.88935 5.02357,3.87191 5.03936,3.85406 5.05472,3.83582 5.06965,3.8172 5.08412,3.7982 5.09814,3.77884 5.1117,3.75911 5.1248,3.73903 5.13741,3.7186 5.14954,3.69784 5.16119,3.67674 5.17233,3.65531 5.18298,3.63357 5.19311,3.61152 5.20272,3.58917 5.21181,3.56652 5.22036,3.54358 5.22837,3.52036 5.23583,3.49687 5.24274,3.47311 5.24909,3.44909 5.25486,3.42481 5.26006,3.4003 5.26467,3.37554 5.2687,3.35056 5.27212,3.32535 5.27494,3.29993 5.27714,3.2743 5.27872,3.24846 5.27968,3.22243 "/>
     <polygon id="_411210664" class="fil1" points="4.99072,3.9064 8.77699,7.69267 8.75994,7.70931 8.74249,7.72552 8.72465,7.74131 8.70641,7.75668 8.68778,7.7716 8.66879,7.78607 8.64942,7.80009 8.6297,7.81365 8.60961,7.82675 8.58919,7.83936 8.56842,7.8515 8.54732,7.86314 8.5259,7.87429 8.50416,7.88493 8.48211,7.89506 8.45976,7.90467 8.43711,7.91376 8.41417,7.92231 8.39095,7.93032 8.36745,7.93779 8.34369,7.94469 8.31967,7.95104 8.2954,7.95681 8.27088,7.96201 8.24613,7.96663 8.22114,7.97065 8.19594,7.97407 8.17051,7.97689 8.14488,7.97909 8.11904,7.98068 8.09302,7.98163 8.0668,7.98195 4.28053,4.19568 4.30675,4.19536 4.33278,4.19441 4.35861,4.19282 4.38424,4.19062 4.40967,4.1878 4.43487,4.18438 4.45986,4.18035 4.48461,4.17574 4.50913,4.17054 4.53341,4.16477 4.55743,4.15842 4.58119,4.15152 4.60468,4.14405 4.6279,4.13604 4.65084,4.12749 4.67349,4.1184 4.69584,4.10879 4.71789,4.09866 4.73963,4.08802 4.76106,4.07687 4.78215,4.06522 4.80292,4.05309 4.82335,4.04048 4.84343,4.02738 4.86315,4.01382 4.88252,3.9998 4.90152,3.98533 4.92014,3.97041 4.93838,3.95504 4.95622,3.93925 4.97367,3.92304 "/>
     <polygon id="_411217552" class="fil1" points="4.28053,4.19568 8.0668,7.98195 7.67721,7.98195 3.89094,4.19568 "/>
     <polygon id="_354137360" class="fil1" points="3.89094,4.19568 7.67721,7.98195 7.66691,7.98209 7.65667,7.98251 7.64647,7.9832 7.63632,7.98416 7.62624,7.98538 7.61622,7.98687 7.60627,7.98861 7.59638,7.99061 7.58657,7.99285 7.57684,7.99535 7.56719,7.99809 7.55762,8.00106 7.54814,8.00428 7.53876,8.00772 7.52946,8.01139 7.52028,8.01528 7.51119,8.0194 7.5022,8.02373 7.49333,8.02828 7.48458,8.03303 7.47594,8.03798 7.46743,8.04315 7.45904,8.0485 7.45078,8.05405 7.44265,8.05979 7.43465,8.06572 7.4268,8.07183 7.41909,8.07811 7.41153,8.08458 7.40412,8.09121 7.39687,8.09801 7.38977,8.10498 3.6035,4.3187 3.6106,4.31174 3.61785,4.30494 3.62526,4.29831 3.63282,4.29184 3.64053,4.28556 3.64839,4.27945 3.65638,4.27352 3.66451,4.26778 3.67277,4.26223 3.68116,4.25687 3.68967,4.25171 3.69831,4.24676 3.70707,4.242 3.71594,4.23746 3.72492,4.23313 3.73401,4.22901 3.7432,4.22512 3.75249,4.22145 3.76187,4.218 3.77135,4.21479 3.78092,4.21181 3.79057,4.20908 3.80031,4.20658 3.81011,4.20433 3.82,4.20234 3.82995,4.20059 3.83997,4.19911 3.85006,4.19789 3.8602,4.19693 3.8704,4.19624 3.88065,4.19582 "/>
     <polygon id="_354137648" class="fil1" points="3.6035,4.3187 7.38977,8.10498 7.38284,8.1121 7.37607,8.11939 7.36946,8.12683 7.36303,8.13442 7.35677,8.14216 7.35069,8.15004 7.34479,8.15807 7.33908,8.16623 7.33356,8.17452 7.32823,8.18294 7.3231,8.19149 7.31817,8.20016 7.31344,8.20894 7.30892,8.21784 7.30461,8.22685 7.30052,8.23597 7.29665,8.24519 7.293,8.2545 7.28957,8.26391 7.28639,8.27341 7.28343,8.283 7.2807,8.29268 7.27822,8.30243 7.27599,8.31226 7.27401,8.32215 7.27228,8.33212 7.2708,8.34215 7.26958,8.35225 7.26863,8.3624 7.26794,8.3726 7.26753,8.38285 7.26739,8.39315 3.48113,4.60688 3.48126,4.59658 3.48168,4.58633 3.48236,4.57613 3.48331,4.56598 3.48453,4.55588 3.48601,4.54585 3.48774,4.53588 3.48972,4.52598 3.49196,4.51616 3.49444,4.50641 3.49716,4.49673 3.50012,4.48714 3.50331,4.47764 3.50673,4.46823 3.51038,4.45891 3.51425,4.4497 3.51835,4.44058 3.52265,4.43157 3.52717,4.42267 3.5319,4.41389 3.53683,4.40522 3.54196,4.39667 3.54729,4.38825 3.55281,4.37996 3.55852,4.3718 3.56442,4.36377 3.5705,4.35589 3.57676,4.34815 3.58319,4.34056 3.5898,4.33311 3.59657,4.32583 "/>
     <polygon id="_354137672" class="fil1" points="3.48113,4.60688 7.26739,8.39315 7.26754,8.4034 7.26795,8.41344 7.26864,8.42328 7.26959,8.43294 7.27078,8.44241 7.27222,8.4517 7.27389,8.46081 7.27578,8.46977 7.27789,8.47856 7.2802,8.48721 7.2827,8.4957 7.2854,8.50406 7.28827,8.51229 7.29131,8.52039 7.29452,8.52837 7.29787,8.53623 7.30136,8.54399 7.30499,8.55165 7.30874,8.55921 7.31261,8.56669 7.31658,8.57408 7.32065,8.58141 7.32481,8.58866 7.32905,8.59585 7.33335,8.60299 7.33772,8.61007 7.34214,8.61712 7.34661,8.62413 7.3511,8.63111 7.35563,8.63807 7.36017,8.64502 7.36471,8.65195 3.57844,4.86568 3.5739,4.85875 3.56936,4.8518 3.56483,4.84484 3.56034,4.83786 3.55587,4.83085 3.55145,4.8238 3.54709,4.81672 3.54278,4.80958 3.53854,4.80239 3.53439,4.79513 3.53031,4.78781 3.52634,4.78042 3.52248,4.77294 3.51872,4.76537 3.51509,4.75772 3.5116,4.74996 3.50825,4.74209 3.50505,4.73411 3.502,4.72602 3.49913,4.71779 3.49644,4.70943 3.49393,4.70094 3.49162,4.69229 3.48951,4.6835 3.48762,4.67454 3.48595,4.66543 3.48452,4.65613 3.48332,4.64667 3.48237,4.63701 3.48169,4.62717 3.48127,4.61713 "/>
     <polygon id="_354137336" class="fil1" points="3.57844,4.86568 7.36471,8.65195 7.36692,8.65533 3.58065,4.86906 "/>
     <polygon id="_354137384" class="fil1" points="3.58065,4.86906 7.36692,8.65533 7.37785,8.66858 3.59159,4.88231 "/>
     <polygon id="_354137576" class="fil1" points="3.59159,4.88231 7.37785,8.66858 7.38225,8.67309 7.38645,8.67757 7.39046,8.68203 7.39428,8.68648 7.39792,8.69091 7.40137,8.69534 7.40465,8.69977 7.40775,8.70419 7.41068,8.70861 7.41344,8.71304 7.41604,8.71747 7.41847,8.72191 7.42074,8.72637 7.42285,8.73084 7.42481,8.73533 7.42662,8.73985 3.64035,4.95358 3.63854,4.94906 3.63658,4.94457 3.63447,4.94009 3.6322,4.93564 3.62977,4.9312 3.62717,4.92676 3.62441,4.92234 3.62148,4.91792 3.61839,4.9135 3.61511,4.90907 3.61165,4.90464 3.60802,4.9002 3.60419,4.89576 3.60018,4.8913 3.59598,4.88681 "/>
     <polygon id="_354137192" class="fil1" points="3.64035,4.95358 7.42662,8.73985 7.42832,8.74451 7.42989,8.74926 7.43133,8.75409 7.43265,8.75901 7.43384,8.76403 7.43492,8.76914 7.43588,8.77435 7.43672,8.77966 7.43746,8.78508 7.43808,8.7906 7.43861,8.79622 7.43903,8.80196 7.43935,8.80781 7.43957,8.81378 7.43971,8.81987 7.43975,8.82607 3.65348,5.0398 3.65344,5.03359 3.65331,5.02751 3.65308,5.02154 3.65276,5.01569 3.65234,5.00995 3.65181,5.00433 3.65119,4.99881 3.65046,4.99339 3.64961,4.98808 3.64865,4.98287 3.64757,4.97776 3.64638,4.97274 3.64507,4.96782 3.64362,4.96298 3.64205,4.95824 "/>
     <polygon id="_354138296" class="fil1" points="3.65348,5.0398 7.43975,8.82607 7.43967,8.83201 7.43943,8.83793 7.43902,8.84382 7.43846,8.84968 7.43774,8.85552 7.43686,8.86132 7.43583,8.86709 7.43466,8.87281 7.43333,8.87851 7.43187,8.88416 7.43026,8.88977 7.4285,8.89533 7.42661,8.90085 7.42459,8.90632 7.42242,8.91174 7.42013,8.9171 7.4177,8.92241 7.41515,8.92765 7.41248,8.93284 7.40968,8.93796 7.40676,8.94302 7.40371,8.94802 7.40056,8.95294 7.39729,8.9578 7.3939,8.96257 7.39041,8.96728 7.3868,8.9719 7.3831,8.97644 7.37929,8.98091 7.37537,8.98529 7.37136,8.98958 7.36725,8.99378 3.58098,5.20751 3.58509,5.20331 3.58911,5.19902 3.59302,5.19464 3.59683,5.19017 3.60054,5.18563 3.60414,5.181 3.60763,5.1763 3.61102,5.17152 3.61429,5.16667 3.61744,5.16175 3.62049,5.15675 3.62341,5.15169 3.62621,5.14657 3.62889,5.14138 3.63144,5.13613 3.63386,5.13083 3.63615,5.12546 3.63832,5.12005 3.64035,5.11458 3.64224,5.10906 3.64399,5.1035 3.6456,5.09789 3.64707,5.09224 3.64839,5.08654 3.64957,5.08081 3.65059,5.07505 3.65147,5.06924 3.65219,5.06341 3.65275,5.05755 3.65316,5.05166 3.6534,5.04574 "/>
     <polygon id="_354137888" class="fil1" points="3.58098,5.20751 7.36725,8.99378 7.36305,8.99789 7.35876,9.0019 7.35439,9.00581 7.34993,9.00962 7.34538,9.01333 7.34076,9.01693 7.33606,9.02043 7.33128,9.02381 7.32643,9.02708 7.3215,9.03024 7.31651,9.03328 7.31145,9.0362 7.30633,9.039 7.30114,9.04167 7.29589,9.04422 7.29059,9.04665 7.28522,9.04894 7.27981,9.0511 7.27434,9.05313 7.26883,9.05502 7.26326,9.05678 7.25765,9.05839 7.252,9.05985 7.24631,9.06118 7.24057,9.06235 7.23481,9.06338 7.229,9.06426 7.22317,9.06498 7.21731,9.06554 7.21142,9.06594 7.2055,9.06619 7.19956,9.06627 3.41329,5.28 3.41923,5.27992 3.42515,5.27967 3.43104,5.27927 3.4369,5.2787 3.44274,5.27798 3.44854,5.27711 3.45431,5.27608 3.46004,5.27491 3.46573,5.27358 3.47139,5.27211 3.47699,5.2705 3.48256,5.26875 3.48807,5.26686 3.49354,5.26483 3.49896,5.26267 3.50432,5.26038 3.50963,5.25795 3.51487,5.2554 3.52006,5.25272 3.52518,5.24993 3.53024,5.247 3.53523,5.24396 3.54016,5.24081 3.54501,5.23754 3.54979,5.23415 3.55449,5.23066 3.55911,5.22706 3.56366,5.22335 3.56812,5.21954 3.57249,5.21563 3.57678,5.21161 "/>
     <polygon id="_354138272" class="fil1" points="3.41329,5.28 7.19956,9.06627 7.15108,9.06567 7.10293,9.06386 7.0551,9.06087 7.00762,9.0567 6.96051,9.05138 6.91377,9.04492 6.86742,9.03732 6.82148,9.02861 6.77595,9.0188 6.73086,9.0079 6.68622,8.99593 6.64203,8.9829 6.59832,8.96883 6.55511,8.95373 6.51239,8.93761 6.4702,8.92049 6.42854,8.90238 6.38742,8.8833 6.34686,8.86326 6.30689,8.84228 6.2675,8.82037 6.22871,8.79754 6.19054,8.77381 6.153,8.74919 6.11611,8.7237 6.07989,8.69734 6.04433,8.67015 6.00947,8.64212 5.97531,8.61328 2.18904,4.82701 2.2232,4.85585 2.25806,4.88388 2.29362,4.91107 2.32985,4.93743 2.36674,4.96292 2.40427,4.98754 2.44244,5.01127 2.48123,5.03409 2.52062,5.05601 2.56059,5.07699 2.60115,5.09703 2.64227,5.11611 2.68393,5.13422 2.72613,5.15134 2.76884,5.16746 2.81206,5.18256 2.85576,5.19663 2.89995,5.20966 2.94459,5.22163 2.98969,5.23253 3.03521,5.24234 3.08115,5.25105 3.1275,5.25865 3.17424,5.26511 3.22135,5.27043 3.26883,5.2746 3.31666,5.27759 3.36481,5.27939 "/>
    </g>
    <path id="_351300104" class="fil1" d="M2.09093 2.09093c0.336937,-0.336941 0.80363,-0.544264 1.32237,-0.544264 0.51937,0 0.986232,0.18587 1.32339,0.48552 0.33628,0.298854 0.543315,0.711075 0.543315,1.16404 0,0.280598 -0.10965,0.530551 -0.28928,0.710185 -0.179638,0.17963 -0.429587,0.28928 -0.710189,0.28928l-0.389591 0c-0.110071,0 -0.212606,0.047878 -0.287437,0.123024 -0.0748307,0.0751457 -0.122378,0.178106 -0.122378,0.288173 0,0.110409 0.0488268,0.18487 0.097315,0.258803l0.0022126 0.00337402 0.0109331 0.0132559c0.0239606,0.0240748 0.0395157,0.0471142 0.0487638,0.0712677 0.00943307,0.0246299 0.0131339,0.0527953 0.0131339,0.0862244 0,0.0634606 -0.0281614,0.123366 -0.0725,0.167705 -0.0443268,0.0443268 -0.104217,0.0724921 -0.167693,0.0724921 -0.518736,0 -0.985437,-0.207327 -1.32237,-0.54428 -0.336933,-0.336949 -0.544256,-0.803657 -0.544256,-1.32243 0,-0.518736 0.207323,-0.985429 0.544264,-1.32237z"/>
   </g>
  </g>
  <path class="fil2" d="M3.41333 -3.93701e-006c1.88514,0 3.41333,1.52819 3.41333,3.41333 0,1.88514 -1.52819,3.41333 -3.41333,3.41333 -1.88514,0 -3.41333,-1.52819 -3.41333,-3.41333 0,-1.88514 1.52819,-3.41333 3.41333,-3.41333z"/>
  <path class="fil3" d="M3.41329 1.54666c-0.518736,0 -0.985429,0.207323 -1.32237,0.544264 -0.336941,0.336937 -0.544264,0.80363 -0.544264,1.32237 0,0.518772 0.207323,0.98548 0.544256,1.32243 0.336937,0.336953 0.803638,0.54428 1.32237,0.54428 0.0634764,0 0.123366,-0.0281654 0.167693,-0.0724921 0.0443386,-0.0443386 0.0725,-0.104244 0.0725,-0.167705 0,-0.0334291 -0.00370079,-0.0615945 -0.0131339,-0.0862244 -0.00924803,-0.0241535 -0.0248031,-0.0471929 -0.0487638,-0.0712677l-0.0109331 -0.0132559 -0.0022126 -0.00337402c-0.0484882,-0.0739331 -0.097315,-0.148394 -0.097315,-0.258803 0,-0.110067 0.0475472,-0.213028 0.122378,-0.288173 0.0748307,-0.0751457 0.177366,-0.123024 0.287437,-0.123024l0.389591 0c0.280602,0 0.530551,-0.10965 0.710189,-0.28928 0.17963,-0.179634 0.28928,-0.429587 0.28928,-0.710185 0,-0.452961 -0.207035,-0.865181 -0.543315,-1.16404 -0.337161,-0.29965 -0.804024,-0.48552 -1.32339,-0.48552z"/>
  <path class="fil4" d="M2.87117 2.63098c-0.110177,0 -0.212815,-0.0475472 -0.287579,-0.122315 -0.0747677,-0.0747638 -0.122315,-0.177402 -0.122315,-0.287575 0,-0.110272 0.0475197,-0.212878 0.122256,-0.287606 0.0747717,-0.0747756 0.177441,-0.122287 0.287638,-0.122287 0.110287,0 0.212925,0.0474843 0.287665,0.122228 0.0747402,0.0747402 0.122228,0.177374 0.122228,0.287665 0,0.110197 -0.0475118,0.212862 -0.122287,0.287634 -0.0747283,0.0747362 -0.177339,0.122256 -0.287606,0.122256z"/>
  <path class="fil4" d="M3.95549 2.63098c-0.110173,0 -0.212811,-0.0475472 -0.287579,-0.122315 -0.0747638,-0.0747638 -0.122315,-0.177402 -0.122315,-0.287575 0,-0.110268 0.0475236,-0.212874 0.122256,-0.287606 0.0747756,-0.0747756 0.177445,-0.122287 0.287638,-0.122287 0.110291,0 0.212925,0.0474843 0.287665,0.122228 0.0747402,0.0747402 0.122228,0.177374 0.122228,0.287665 0,0.110197 -0.0475118,0.212862 -0.122287,0.287634 -0.0747283,0.0747323 -0.177339,0.122256 -0.287606,0.122256z"/>
  <path class="fil4" d="M4.60688 3.49815c-0.110067,0 -0.213028,-0.0475512 -0.288173,-0.122378 -0.0751457,-0.0748307 -0.123024,-0.17737 -0.123024,-0.287441 0,-0.110102 0.0478701,-0.212654 0.123012,-0.287492 0.0751535,-0.0748504 0.178118,-0.122398 0.288185,-0.122398 0.109764,0 0.212598,0.0476181 0.287531,0.122555 0.0746693,0.0746654 0.122362,0.17713 0.122362,0.287335 0,0.109949 -0.0478268,0.212421 -0.122701,0.28728 -0.0749409,0.0749213 -0.177657,0.122539 -0.287193,0.122539z"/>
  <path class="fil4" d="M2.22109 3.49815c-0.110291,0 -0.212929,-0.0474685 -0.287677,-0.122201 -0.0747323,-0.0747205 -0.122217,-0.177327 -0.122217,-0.287618 0,-0.110319 0.0474803,-0.212945 0.122209,-0.287673 0.074752,-0.0747441 0.17739,-0.122217 0.287685,-0.122217 0.110197,0 0.212874,0.0475 0.287657,0.122276 0.0747205,0.0747205 0.122232,0.177315 0.122232,0.287614 0,0.110268 -0.0475157,0.21285 -0.12224,0.287559 -0.0747835,0.0747638 -0.177453,0.12226 -0.28765,0.12226z"/>
  <path class="fil5" d="M4.43802 3.25578c0.0446181,0.0444252 0.105,0.0726575 0.168858,0.0726575 0.0632323,0 0.123339,-0.0282953 0.167874,-0.0728189 0.0441299,-0.0441142 0.0723189,-0.103843 0.0723189,-0.167295 0,-0.0632677 -0.028315,-0.123024 -0.0726457,-0.16735 -0.0445315,-0.0445354 -0.104535,-0.0728386 -0.167547,-0.0728386 -0.0638583,0 -0.124244,0.0282362 -0.168866,0.0726772 -0.0443661,0.044185 -0.0726299,0.104 -0.0726299,0.167512 0,0.0634843 0.0282717,0.123276 0.0726378,0.167457z"/>
  <path class="fil6" d="M3.78789 2.38869c0.044374,0.044374 0.104264,0.0725945 0.167594,0.0725945 0.0634094,0 0.123283,-0.0281969 0.167622,-0.0725354 0.044374,-0.0443701 0.0725709,-0.104283 0.0725709,-0.167654 0,-0.0634488 -0.0281693,-0.123346 -0.0725118,-0.167685 -0.0443386,-0.0443386 -0.104232,-0.0725079 -0.167681,-0.0725079 -0.0633661,0 -0.12328,0.0281929 -0.167654,0.0725669 -0.0443386,0.0443425 -0.0725394,0.104217 -0.0725394,0.167626 0,0.0633307 0.0282244,0.12322 0.0725984,0.167594z"/>
  <path class="fil7" d="M2.70357 2.38869c0.044374,0.044374 0.104264,0.0725945 0.167598,0.0725945 0.0634134,0 0.123283,-0.0281969 0.167622,-0.0725354 0.044374,-0.0443701 0.0725709,-0.104283 0.0725709,-0.167654 0,-0.0634488 -0.0281732,-0.123346 -0.0725118,-0.167685 -0.0443386,-0.0443386 -0.104232,-0.0725079 -0.167681,-0.0725079 -0.0633701,0 -0.123283,0.0281929 -0.167654,0.0725669 -0.0443386,0.0443386 -0.0725394,0.104217 -0.0725394,0.167626 0,0.0633307 0.0282205,0.12322 0.0725945,0.167594z"/>
  <path class="fil8" d="M2.0534 3.25596c0.0443346,0.0443268 0.104232,0.0724803 0.167693,0.0724803 0.063378,0 0.123299,-0.0281811 0.167665,-0.0725394 0.0443346,-0.0443228 0.0725236,-0.104173 0.0725236,-0.167575 0,-0.063437 -0.028189,-0.123303 -0.0725157,-0.16763 -0.044374,-0.044374 -0.104295,-0.0725591 -0.167673,-0.0725591 -0.0634567,0 -0.123366,0.0281614 -0.167705,0.0725 -0.0443268,0.0443268 -0.0724882,0.104217 -0.0724882,0.167689 0,0.063437 0.0281654,0.123311 0.0725,0.167634z"/>
 </g>
</svg>
